Coordinates
version=1
nRows=10
nColumns=40
inDegrees=yes

Units are S.I. units (second, meters, Newtons, ...)
Angles are in degrees.

endheader
time	pelvis_tilt	pelvis_list	pelvis_rotation	pelvis_tx	pelvis_ty	pelvis_tz	hip_flexion_r	hip_adduction_r	hip_rotation_r	knee_angle_r	knee_angle_r_beta	ankle_angle_r	subtalar_angle_r	mtp_angle_r	hip_flexion_l	hip_adduction_l	hip_rotation_l	knee_angle_l	knee_angle_l_beta	ankle_angle_l	subtalar_angle_l	mtp_angle_l	lumbar_extension	lumbar_bending	lumbar_rotation	arm_flex_r	arm_add_r	arm_rot_r	elbow_flex_r	pro_sup_r	wrist_flex_r	wrist_dev_r	arm_flex_l	arm_add_l	arm_rot_l	elbow_flex_l	pro_sup_l	wrist_flex_l	wrist_dev_l
     29.37000000	     -6.43511526	     -4.97643618	     -0.11562701	      1.04374658	      0.92908791	      0.42299244	     35.00761326	     -7.45835210	     -6.40312862	     72.56429916	     72.56429916	      1.42622484	    -16.90975024	      2.45727034	     20.45100536	     -6.22481686	     -7.74432995	     23.02599643	     23.02599643	     11.62344653	     -6.93691692	     -2.23294344	    -13.93219121	      5.53519712	      0.73936883	      3.07076198	    -15.60689369	      0.59890868	     65.59846162	     45.23541538	      0.00000000	      0.00000000	      1.58817086	    -14.82793941	     -4.43991092	     65.62034116	     46.28587008	      0.00000000	      0.00000000
     29.38171429	     -6.40707106	     -4.80754994	     -0.46182331	      1.04260857	      0.92982764	      0.42231615	     36.23272885	     -7.70869739	     -6.27493097	     71.25924640	     71.25924640	      1.28021406	    -16.46473010	      2.07578358	     19.48611919	     -6.06205326	     -8.25134455	     22.44298900	     22.44298900	     11.91573530	     -6.65250468	     -2.33387758	    -14.09281680	      5.39058787	      1.07132596	      1.24121582	    -16.28215629	      0.24327370	     62.53263169	     45.34748112	      0.00000000	      0.00000000	      2.63132752	    -14.98765021	     -4.48171108	     67.46601658	     46.35084395	      0.00000000	      0.00000000
     29.39342857	     -6.40577618	     -4.70500801	     -0.79223671	      1.04147874	      0.93045572	      0.42176264	     37.31995672	     -7.85657433	     -6.21578752	     69.69603087	     69.69603087	      0.82357508	    -16.11917807	      1.14271133	     18.58418222	     -6.00517541	     -8.86423808	     21.89086653	     21.89086653	     12.20260734	     -6.05787927	     -2.75260318	    -14.21191753	      5.24068475	      0.88685273	      0.62210849	    -16.13844675	     -1.04086632	     57.07077991	     45.58349507	      0.00000000	      0.00000000	      3.03243495	    -15.71403452	     -4.06054409	     70.11899230	     46.42552718	      0.00000000	      0.00000000
     29.40514286	     -6.35008328	     -4.53136091	     -1.10814282	      1.04048729	      0.93109346	      0.42124118	     38.19561154	     -8.05142982	     -6.16886148	     67.87006246	     67.87006246	      0.44183970	    -15.75950950	      0.57050348	     17.57555416	     -5.82515646	     -9.44091519	     21.23976564	     21.23976564	     12.43662988	     -5.66036561	     -3.00573501	    -14.33594468	      5.05198225	      0.77723314	     -0.12835210	    -16.21175604	     -1.98655419	     52.21643928	     45.78052465	      0.00000000	      0.00000000	      3.61505096	    -16.10429489	     -4.27844440	     72.37863877	     46.55663505	      0.00000000	      0.00000000
     29.41685714	     -6.28062081	     -4.37544345	     -1.41248421	      1.03954972	      0.93171149	      0.42072702	     38.88163603	     -8.19746705	     -6.14617728	     65.72743239	     65.72743239	      0.24875404	    -15.23832748	      0.71301823	     16.53949909	     -5.62499391	     -9.89854276	     20.54427366	     20.54427366	     12.72543546	     -5.29760359	     -3.05676109	    -14.53546340	      4.94543034	      1.14853729	     -1.86339031	    -16.87881078	     -2.15720412	     49.86572724	     45.85988282	      0.00000000	      0.00000000	      4.70974050	    -16.11119817	     -4.58254786	     74.00968253	     46.62739309	      0.00000000	      0.00000000
     29.42857143	     -6.19922619	     -4.22829180	     -1.70609985	      1.03865850	      0.93222709	      0.42035175	     39.36760907	     -8.32559511	     -6.19882728	     63.21513087	     63.21513087	      0.02819399	    -14.72513609	      0.90227443	     15.50394392	     -5.44149723	    -10.39427755	     19.85694138	     19.85694138	     12.99281086	     -4.84622326	     -3.18789516	    -14.72831163	      4.82931608	      1.43257993	     -3.27670259	    -17.33381095	     -2.49769205	     46.87847698	     45.97239310	      0.00000000	      0.00000000	      5.67920809	    -16.23686724	     -4.66390575	     75.90111741	     46.68675970	      0.00000000	      0.00000000
     29.44028571	     -6.20203556	     -4.03641358	     -1.92938367	      1.03775942	      0.93247414	      0.42014797	     39.74737950	     -8.47978110	     -6.31106532	     60.29588299	     60.29588299	     -0.42542501	    -14.36863186	      0.45466328	     14.64070703	     -5.21654616	    -10.85034378	     19.26983874	     19.26983874	     13.09538465	     -4.48261949	     -3.70785648	    -14.73959319	      4.57074598	      0.55826753	     -2.13795435	    -16.61044346	     -4.77524093	     39.30761360	     46.32433030	      0.00000000	      0.00000000	      5.52696186	    -17.05066381	     -5.30401746	     78.73353301	     46.90880130	      0.00000000	      0.00000000
     29.45200000	     -6.15696194	     -3.85853923	     -2.14379104	      1.03696684	      0.93268719	      0.41998025	     39.87631536	     -8.60862080	     -6.50801946	     56.98970195	     56.98970195	     -0.66019531	    -13.80769772	      0.83031050	     13.67407269	     -4.97194864	    -11.23049415	     18.59640677	     18.59640677	     13.35390536	     -4.09038724	     -3.78692367	    -14.86825812	      4.44394527	      0.80373652	     -3.79200079	    -17.13831558	     -4.89316566	     37.70056984	     46.37475805	      0.00000000	      0.00000000	      6.52433091	    -17.11160022	     -5.47815259	     80.39769148	     46.96858652	      0.00000000	      0.00000000
     29.46371429	     -6.21218157	     -3.64695345	     -2.32699782	      1.03619641	      0.93254474	      0.42000691	     39.89644058	     -8.74529466	     -6.80939190	     53.24521377	     53.24521377	     -1.13837130	    -13.27164598	      0.50772785	     12.85538011	     -4.72563323	    -11.70963827	     17.97631908	     17.97631908	     13.49457903	     -3.56282802	     -4.32795660	    -14.86756938	      4.21312456	      0.63973646	     -4.30318920	    -17.18550092	     -5.72479647	     33.90789126	     46.54183580	      0.00000000	      0.00000000	      6.91151803	    -17.83709727	     -5.18902786	     83.05969737	     47.05952045	      0.00000000	      0.00000000
     29.47542857	     -6.21524190	     -3.44535903	     -2.46776625	      1.03559696	      0.93240743	      0.42011309	     39.62025706	     -8.83796884	     -7.21902117	     49.10792234	     49.10792234	     -1.36294227	    -12.51851805	      0.85417069	     11.94137731	     -4.43947725	    -11.97726161	     17.28654683	     17.28654683	     13.73826748	     -3.22681616	     -4.44694749	    -14.87845322	      4.04319811	      0.76408756	     -5.83468678	    -17.51500472	     -5.90793490	     32.56040200	     46.58842853	      0.00000000	      0.00000000	      7.84066486	    -17.82910952	     -5.59918221	     84.63075685	     47.13352497	      0.00000000	      0.00000000
